<?xml version="1.0" standalone="no"?>
<!DOCTYPE svg PUBLIC "-//W3C//DTD SVG 20010904//EN"
 "http://www.w3.org/TR/2001/REC-SVG-20010904/DTD/svg10.dtd">
<svg version="1.0" xmlns="http://www.w3.org/2000/svg"
 width="130.000000pt" height="87.000000pt" viewBox="0 0 130.000000 87.000000"
 preserveAspectRatio="xMidYMid meet">

<g transform="translate(0.000000,87.000000) scale(0.100000,-0.100000)"
fill="#000000" stroke="none">
<path d="M109 773 c-13 -15 -12 -15 8 -5 14 8 86 12 211 12 219 0 222 -1 222
-86 l0 -49 -122 3 c-141 4 -164 0 -171 -28 -5 -19 -12 -21 -84 -18 l-78 3 -6
55 -6 55 1 -60 1 -60 93 -3 c87 -3 92 -2 92 18 0 23 16 25 183 21 l107 -3 1
43 c2 65 -1 82 -18 102 -14 15 -38 17 -218 17 -177 0 -204 -2 -216 -17z"/>
<path d="M707 783 c-4 -3 -7 -36 -7 -73 0 -57 3 -70 23 -88 32 -30 116 -31
142 -2 12 13 34 20 74 23 l56 3 -60 2 c-51 2 -62 -1 -73 -18 -10 -16 -23 -20
-66 -20 -72 0 -86 16 -86 103 l0 67 163 0 c190 0 246 -12 294 -62 37 -39 53
-76 53 -125 0 -45 -35 -119 -62 -134 -19 -10 -18 -12 14 -34 19 -13 42 -38 51
-57 11 -22 17 -27 17 -14 0 10 -17 36 -39 57 -38 38 -38 39 -18 56 45 40 60
132 33 196 -20 49 -75 96 -130 112 -51 15 -366 22 -379 8z"/>
<path d="M131 751 c-8 -5 -16 -32 -19 -65 l-4 -56 66 0 c59 0 66 2 66 20 0 19
7 20 145 20 l145 0 0 33 c0 18 -5 38 -12 45 -14 14 -365 17 -387 3z"/>
<path d="M730 707 c0 -29 5 -58 12 -65 7 -7 32 -12 56 -12 35 0 45 4 49 20 5
18 14 20 77 20 94 0 138 -21 150 -72 12 -46 -6 -91 -42 -108 -15 -7 -60 -15
-100 -18 -69 -4 -73 -3 -93 22 -13 17 -30 26 -49 26 -62 0 -60 7 -60 -217 l0
-204 168 3 c152 3 171 5 215 27 68 33 102 87 101 160 0 70 -20 102 -81 132
l-45 22 38 21 c65 37 91 117 60 189 -35 83 -103 107 -306 107 l-150 0 0 -53z
m346 -350 c28 -33 32 -82 8 -116 -25 -35 -75 -51 -159 -51 l-75 0 0 101 0 101
101 -4 c96 -3 102 -4 125 -31z"/>
<path d="M870 289 l0 -81 81 4 c74 3 83 6 105 31 13 16 24 38 24 50 0 30 -27
67 -48 67 -16 -1 -16 -1 0 -11 26 -15 39 -45 32 -75 -9 -34 -56 -54 -129 -54
l-55 0 0 69 0 70 53 4 52 3 -57 2 -58 2 0 -81z"/>
<path d="M1017 628 c43 -21 41 -88 -5 -113 -15 -8 -20 -14 -12 -14 46 -1 75
70 46 114 -9 14 -24 25 -34 24 -14 0 -13 -2 5 -11z"/>
<path d="M87 543 c-4 -3 -7 -99 -7 -213 0 -195 1 -209 21 -234 l20 -26 200 0
c238 0 239 0 239 100 l0 60 -145 0 -145 0 0 59 c0 54 2 60 23 64 19 4 18 4 -5
6 l-28 1 0 -70 c0 -49 4 -70 13 -71 6 -1 72 -1 145 1 l132 2 0 -54 c0 -87 -2
-88 -228 -88 -179 0 -193 1 -212 20 -19 19 -20 31 -18 228 l3 207 78 3 c72 3
79 1 84 -18 5 -19 13 -20 120 -20 l114 0 -3 -67 c-3 -63 -5 -68 -26 -69 -39
-2 -38 -14 1 -14 l37 0 0 80 0 80 -115 0 c-108 0 -115 1 -115 20 0 18 -7 20
-88 20 -49 0 -92 -3 -95 -7z"/>
<path d="M721 533 c-21 -18 -22 -24 -19 -238 l3 -220 168 -3 c170 -3 226 5
262 33 15 12 11 11 -15 -2 -29 -15 -66 -19 -222 -21 l-188 -4 0 221 c0 214 1
221 21 232 21 11 76 9 114 -5 13 -5 11 -2 -5 8 -34 21 -93 20 -119 -1z"/>
<path d="M113 504 c-2 -6 -3 -96 -1 -198 2 -153 6 -188 18 -196 23 -15 373
-13 388 2 7 7 12 27 12 45 l0 33 -107 1 c-60 0 -124 1 -143 2 l-35 2 -3 98 -3
97 116 0 115 0 0 45 0 45 -114 0 c-106 0 -114 1 -119 21 -5 18 -12 20 -62 18
-33 -2 -59 -8 -62 -15z"/>
<path d="M1243 290 c0 -25 2 -35 4 -22 2 12 2 32 0 45 -2 12 -4 2 -4 -23z"/>
<path d="M1216 193 c-6 -14 -5 -15 5 -6 7 7 10 15 7 18 -3 3 -9 -2 -12 -12z"/>
<path d="M1179 143 l-24 -28 28 24 c15 14 27 26 27 28 0 8 -8 1 -31 -24z"/>
</g>
</svg>
